<?xml version="1.0" encoding="UTF-8" standalone="no"?>
<!-- Created with Inkscape (http://www.inkscape.org/) -->

<svg
   width="56mm"
   height="28mm"
   viewBox="0 0 56 28"
   version="1.1"
   id="svg1"
   xml:space="preserve"
   inkscape:version="1.3.2 (091e20e, 2023-11-25, custom)"
   sodipodi:docname="gens-bar-mirano.svg"
   xmlns:inkscape="http://www.inkscape.org/namespaces/inkscape"
   xmlns:sodipodi="http://sodipodi.sourceforge.net/DTD/sodipodi-0.dtd"
   xmlns="http://www.w3.org/2000/svg"
   xmlns:svg="http://www.w3.org/2000/svg"><sodipodi:namedview
     id="namedview1"
     pagecolor="#ffffff"
     bordercolor="#000000"
     borderopacity="0.25"
     inkscape:showpageshadow="2"
     inkscape:pageopacity="0.0"
     inkscape:pagecheckerboard="0"
     inkscape:deskcolor="#d1d1d1"
     inkscape:document-units="mm"
     inkscape:zoom="0.69219276"
     inkscape:cx="397.28818"
     inkscape:cy="561.25984"
     inkscape:window-width="1920"
     inkscape:window-height="991"
     inkscape:window-x="-9"
     inkscape:window-y="-9"
     inkscape:window-maximized="1"
     inkscape:current-layer="layer1" /><defs
     id="defs1" /><g
     inkscape:label="Livello 1"
     inkscape:groupmode="layer"
     id="layer1"><path
       style="fill:#000000"
       d="m 24.3316,27.370405 c -2.546693,-0.632177 -9.128125,-3.153839 -9.128125,-3.497421 0,-0.11066 0.643596,-1.558064 1.430213,-3.216455 1.426207,-3.006812 2.279963,-5.535063 2.715787,-8.04234 0.168145,-0.967326 0.335244,-1.296468 0.621665,-1.224518 0.21544,0.05412 1.278538,0.256656 2.362439,0.450083 1.0839,0.193426 2.691244,0.705834 3.571874,1.138684 0.880631,0.43285 2.047631,0.924155 2.593334,1.09179 0.780682,0.239818 0.992187,0.438092 0.992187,0.930115 0,0.343928 -0.09601,0.68466 -0.213349,0.757182 -0.211187,0.13052 -4.531905,-1.51974 -6.094146,-2.327606 -0.972648,-0.502976 -1.999276,-0.54146 -2.350914,-0.08813 -0.485043,0.625321 -1.473704,3.847015 -1.310817,4.271489 0.100618,0.262208 0.473464,0.424865 0.973885,0.424865 0.445968,0 1.43197,0.317636 2.191117,0.705858 0.759146,0.388222 1.904285,0.737747 2.544753,0.776723 1.181394,0.07189 1.602271,0.393358 1.609587,1.229398 0.0061,0.698276 -0.637746,0.571599 -3.278967,-0.645128 -1.509175,-0.695229 -2.918275,-1.150688 -3.781592,-1.22231 -1.337273,-0.110944 -1.380497,-0.09276 -1.533114,0.645127 -0.08638,0.41761 -0.450745,1.314996 -0.809713,1.994193 -0.606765,1.148049 -0.621936,1.265635 -0.2157,1.67187 0.739917,0.739918 1.50806,1.127106 2.611679,1.316436 0.582083,0.09986 1.34686,0.367614 1.699504,0.595011 0.463468,0.29886 1.215931,0.399596 2.714973,0.363465 1.741393,-0.04197 2.10163,0.02253 2.247407,0.402423 0.117119,0.305205 -0.06083,0.654059 -0.546915,1.072169 -0.396285,0.340871 -0.803177,0.605953 -0.904202,0.589073 -0.101026,-0.01688 -0.421809,-0.0898 -0.71285,-0.16205 z m 21.563541,-1.659341 c -0.363802,-0.11651 -1.062119,-0.223705 -1.551816,-0.23821 -0.651237,-0.01929 -1.113115,-0.266295 -1.719792,-0.919714 -0.456188,-0.491337 -1.12709,-0.984748 -1.490892,-1.096468 -1.614171,-0.495698 -2.235364,-1.332028 -1.821122,-2.45183 0.380632,-1.028947 1.285206,-0.721419 2.877738,0.978343 1.203027,1.284031 1.771099,1.66686 3.175399,2.139935 1.549758,0.522075 1.854609,0.545513 3.248366,0.249737 1.087914,-0.230871 1.621908,-0.489365 1.824424,-0.883163 0.157477,-0.306215 0.513449,-0.806686 0.79105,-1.112156 1.046972,-1.152083 -0.437254,-2.588107 -3.675991,-3.556608 -0.616418,-0.184332 -1.291795,-0.59618 -1.500837,-0.915218 -0.241522,-0.368611 -0.970813,-0.745822 -2.000571,-1.034758 -1.378947,-0.386912 -1.682948,-0.585651 -2.039471,-1.333288 -0.919011,-1.927185 0.408143,-4.719164 2.386253,-5.020042 3.737868,-0.5685453 4.997907,-0.416695 5.33419,0.642837 0.163016,0.513619 2.9761,2.115186 3.715234,2.115186 0.739772,0 0.625336,0.52757 -0.311869,1.437773 -1.246276,1.210367 -2.041754,1.237364 -2.46284,0.08358 -0.878305,-2.406571 -1.408091,-2.726677 -4.769762,-2.881978 l -1.964639,-0.09076 -0.514659,0.881219 c -0.487672,0.835009 -0.491718,0.929327 -0.07717,1.798653 0.298906,0.626813 0.750941,1.03886 1.426987,1.300752 0.976455,0.378267 1.807396,0.785037 2.841576,1.391035 0.291042,0.170542 1.224327,0.561374 2.073967,0.868517 1.289465,0.466138 1.672122,0.759207 2.315104,1.773084 0.889294,1.402271 0.960816,2.167023 0.29668,3.172277 -0.260493,0.39429 -0.595457,0.955016 -0.744366,1.246057 -0.664335,1.298444 -3.707835,2.080778 -5.661176,1.455209 z M 31.349737,20.958041 c -0.300553,-0.189872 -0.431995,-1.146242 -0.572139,-4.162886 -0.173612,-3.737059 -0.313749,-4.479556 -1.403722,-7.4374203 -0.231006,-0.626883 -0.493615,-2.17672 -0.583575,-3.444082 -0.137412,-1.935864 -0.09501,-2.361189 0.265185,-2.660126 0.235812,-0.195706 0.600519,-0.289916 0.810458,-0.209355 0.635736,0.243955 3.109567,3.422496 4.614029,5.928409 2.46877,4.1121163 6.006596,8.6392943 4.364026,5.5844253 -0.341978,-0.636014 -0.489512,-1.553427 -0.52518,-3.265734 -0.09257,-4.4438383 -0.249639,-5.4823313 -1.116043,-7.3787833 -0.907466,-1.986328 -1.04047,-2.807674 -0.454659,-2.807674 0.669319,0 1.181596,0.774528 1.713464,2.590646 0.735796,2.51245 1.083245,4.64159 1.085559,6.6522173 0.0025,2.16106 0.371611,4.490973 1.025532,6.473137 l 0.501632,1.520548 -0.566144,0.214002 c -0.872986,0.329989 -1.304983,-0.05337 -2.630091,-2.333947 -1.348575,-2.320971 -2.088867,-3.009265 -2.992633,-2.782434 -0.715751,0.179642 -1.184243,-0.601671 -1.684436,-2.80917 -0.181353,-0.8003643 -0.602718,-1.9314583 -0.936368,-2.5135413 -0.641381,-1.118952 -1.979908,-2.523534 -1.979908,-2.077614 0,0.51047 1.341378,8.1749283 1.596621,9.1228873 0.359399,1.334783 0.452664,5.843175 0.123171,5.954003 -0.145521,0.04895 -0.440171,-0.02193 -0.654779,-0.157508 z M 8.9925679,20.005794 C 8.559746,19.780106 7.845371,19.376964 7.405068,19.109924 6.9647649,18.842884 6.232516,18.545846 5.7778481,18.449839 4.2716265,18.131788 3.510705,16.939737 2.7661002,13.731668 2.4883424,12.534971 2.1161832,11.063891 1.9390796,10.462602 1.6421197,9.4543847 1.6748582,9.2512397 2.3599767,7.8509077 2.7685736,7.0157657 3.6024485,5.8110897 4.213032,5.1738497 c 0.9818315,-1.024696 1.2453707,-1.15895 2.2799851,-1.161483 0.6434082,-0.0016 1.7543028,-0.180169 2.4686545,-0.396875 1.8112144,-0.549451 2.4864104,-0.495889 3.5006334,0.277696 0.48436,0.369439 1.378288,0.847283 1.986507,1.061875 1.154322,0.407269 1.812996,0.835638 1.812996,1.179085 0,0.345409 -1.758294,1.056083 -2.612879,1.056083 -0.630216,0 -0.902648,-0.173137 -1.21115,-0.769715 -0.52704,-1.019182 -2.375861,-1.74807 -3.7713278,-1.486825 -1.0464174,0.1959 -3.6775644,1.344784 -3.8985051,1.702274 -0.114881,0.185881 -0.4663777,1.908414 -0.8521218,4.1758793 -0.1800193,1.058182 0.7083652,3.801463 1.7765034,5.485743 0.6103645,0.962445 1.1184523,1.390238 2.2405825,1.886497 0.7981693,0.352988 1.904577,0.714292 2.4586828,0.802897 0.948497,0.151671 1.10494,0.07054 2.672781,-1.386054 L 14.72969,16.053772 14.576831,14.730856 C 14.331591,12.60843 13.023158,11.933179 11.183703,12.979742 9.9767862,13.66642 8.4416722,13.868157 8.0465096,13.392015 7.5346578,12.775271 7.9456254,12.303066 9.161533,12.110844 c 0.6309332,-0.09974 2.076031,-0.47378 3.211329,-0.831191 3.253187,-1.024159 3.910744,-0.864071 3.355931,0.817031 -0.250452,0.758877 -0.225803,1.154506 0.135677,2.177639 0.963226,2.726316 0.961053,2.64773 0.100313,3.628058 -1.061884,1.209419 -3.715582,2.517476 -5.103047,2.515386 -0.595221,-8.97e-4 -1.4363458,-0.186284 -1.8691681,-0.411973 z"
       id="path1" /></g></svg>
